<?xml version="1.0" encoding="UTF-8"?>
<svg width="32" height="32" viewBox="0 0 32 32" xmlns="http://www.w3.org/2000/svg">
  <!-- Barbarian - Bare chest, leather armor, large axe -->
  <g id="barbarian">
    <!-- Hair/headband -->
    <rect x="10" y="4" width="12" height="4" fill="#8B4513"/>
    <rect x="12" y="6" width="8" height="2" fill="#654321"/>
    <!-- Head -->
    <rect x="12" y="8" width="8" height="4" fill="#FFDBAC"/>
    <rect x="14" y="10" width="2" height="1" fill="#000000"/>
    <rect x="18" y="10" width="2" height="1" fill="#000000"/>
    <!-- Bare chest -->
    <rect x="10" y="12" width="12" height="8" fill="#FFDBAC"/>
    <!-- Leather armor -->
    <rect x="8" y="20" width="16" height="8" fill="#8B4513"/>
    <rect x="10" y="22" width="12" height="4" fill="#A0522D"/>
    <!-- Arms -->
    <rect x="6" y="14" width="4" height="8" fill="#FFDBAC"/>
    <rect x="22" y="14" width="4" height="8" fill="#FFDBAC"/>
    <!-- Legs -->
    <rect x="10" y="28" width="4" height="4" fill="#8B4513"/>
    <rect x="18" y="28" width="4" height="4" fill="#8B4513"/>
    <!-- Large axe -->
    <rect x="26" y="8" width="4" height="4" fill="#C0C0C0"/>
    <rect x="28" y="12" width="2" height="8" fill="#8B4513"/>
    <!-- Feet -->
    <rect x="8" y="30" width="6" height="2" fill="#654321"/>
    <rect x="18" y="30" width="6" height="2" fill="#654321"/>
  </g>
</svg>