<?xml version="1.0" encoding="UTF-8"?>
<svg width="32" height="32" viewBox="0 0 32 32" xmlns="http://www.w3.org/2000/svg">
  <!-- Archer - Green tunic, bow, quiver -->
  <g id="archer">
    <!-- Head -->
    <rect x="12" y="4" width="8" height="6" fill="#FFDBAC"/>
    <rect x="14" y="6" width="2" height="2" fill="#000000"/>
    <rect x="18" y="6" width="2" height="2" fill="#000000"/>
    <!-- Hair -->
    <rect x="10" y="4" width="12" height="2" fill="#8B4513"/>
    <!-- Tunic -->
    <rect x="8" y="10" width="16" height="14" fill="#228B22"/>
    <rect x="10" y="12" width="12" height="10" fill="#32CD32"/>
    <!-- Arms -->
    <rect x="6" y="12" width="4" height="8" fill="#FFDBAC"/>
    <rect x="22" y="12" width="4" height="8" fill="#FFDBAC"/>
    <!-- Legs -->
    <rect x="10" y="24" width="4" height="6" fill="#8B4513"/>
    <rect x="18" y="24" width="4" height="6" fill="#8B4513"/>
    <!-- Bow -->
    <rect x="4" y="8" width="2" height="12" fill="#8B4513"/>
    <rect x="3" y="8" width="1" height="1" fill="#8B4513"/>
    <rect x="3" y="19" width="1" height="1" fill="#8B4513"/>
    <!-- Quiver -->
    <rect x="24" y="8" width="3" height="8" fill="#654321"/>
    <rect x="25" y="6" width="1" height="2" fill="#8B4513"/>
    <!-- Feet -->
    <rect x="8" y="30" width="6" height="2" fill="#654321"/>
    <rect x="18" y="30" width="6" height="2" fill="#654321"/>
  </g>
</svg>